# xmcd
#
# Track frame offsets:
# 150
# 13406
# 26993
# 43516
# 61024
# 78440
# 94737
# 111274
# 127230
# 150198
#
# Disc length: 2244 seconds
#
# Revision: 2
# Processed by: cddbd v1.5.2PL0 Copyright (c) Steve Scherf et al.
# Submitted via: Easy CD Ripper v2.26
#
DISCID=7c08c20a
DTITLE=יצחק קלפטר - הקלטות 1-27.2.81
DYEAR=1981
DGENRE=Rock
TTITLE0=האהבה שלי היא לא האהבה שלו - יצחק קלפטר
TTITLE1=היא עוברת - יצחק קלפטר
TTITLE2=אף אחד כבר לא מתגעגע - יצחק קלפטר
TTITLE3=את אני ואז - יצחק קלפטר
TTITLE4=נפגשנו - יצחק קלפטר
TTITLE5=בוקר - יצחק קלפטר
TTITLE6=אחד ובינתיים - יצחק קלפטר
TTITLE7=מה היא הדרך - יצחק קלפטר
TTITLE8=היא הסכימה - יצחק קלפטר
TTITLE9=אצל אברם - יצחק קלפטר
EXTD=
EXTT0=
EXTT1=
EXTT2=
EXTT3=
EXTT4=
EXTT5=
EXTT6=
EXTT7=
EXTT8=
EXTT9=
PLAYORDER=
